<?xml version="1.0" standalone="no"?>
<!DOCTYPE svg PUBLIC "-//W3C//DTD SVG 1.1//EN" "http://www.w3.org/Graphics/SVG/1.1/DTD/svg11.dtd" >
<!--
2014-10-6: Created.
-->
<svg xmlns="http://www.w3.org/2000/svg">
<metadata>
Created by FontForge 20110222 at Mon Oct  6 12:15:29 2014
 By failli,,,
Created by failli,,, with FontForge 2.0 (http://fontforge.sf.net)
</metadata>
<defs>
<font id="teampot-icons" horiz-adv-x="14933" >
  <font-face 
    font-family="teampot-icons"
    font-weight="500"
    font-stretch="normal"
    units-per-em="512"
    panose-1="2 0 6 3 0 0 0 0 0 0"
    ascent="448"
    descent="-64"
    bbox="0 -85796 39822 71218"
    underline-thickness="25.6"
    underline-position="-51.2"
    unicode-range="U+F101-F139"
  />
    <missing-glyph />
    <glyph glyph-name="uniF101" unicode="&#xf101;" horiz-adv-x="29867" 
d="M0 -66965v76800h29867v-76800h-29867zM13589 171h-128v-128h-42v128h-128v42h128v128h42v-128h128v-42zM13184 -64v512h512v-512h-512z" />
    <glyph glyph-name="uniF102" unicode="&#xf102;" 
d="M0 -33259v38400h14933v-38400h-14933zM9344 171h-128v-128h-43v128h-128v42h128v128h43v-128h128v-42zM8939 -64v512h512v-512h-512z" />
    <glyph glyph-name="uniF103" unicode="&#xf103;" horiz-adv-x="29867" 
d="M0 -61504v76800h29867v-76800h-29867zM13184 -64v512h512v-512h-512zM13353 375l-99 -81l-27 32l98 81zM13653 326l-27 -32l-99 84l28 32zM13440 363c107 0 192 -85 192 -192s-85 -192 -192 -192s-192 85 -192 192s85 192 192 192zM13440 21c83 0 149 67 149 150
s-66 149 -149 149s-149 -66 -149 -149s66 -150 149 -150zM13461 256v-64h64v-43h-64v-64h-42v64h-64v43h64v64h42z" />
    <glyph glyph-name="uniF104" unicode="&#xf104;" 
d="M0 -30528v38400h14933v-38400h-14933zM8939 -64v512h512v-512h-512zM9106 375l-97 -83l-28 33l97 84zM9408 325l-28 -33l-98 82l28 33zM9195 363c106 0 192 -86 192 -192s-86 -192 -192 -192c-107 0 -192 86 -192 192s85 192 192 192zM9195 21c82 0 149 67 149 150
c0 82 -67 149 -149 149s-150 -67 -150 -149s68 -150 150 -150zM9216 256v-64h64v-43h-64v-64h-43v64h-64v43h64v64h43z" />
    <glyph glyph-name="uniF105" unicode="&#xf105;" horiz-adv-x="29867" 
d="M0 -47851v76800h29867v-76800h-29867zM13611 405c23 0 42 -19 42 -42v-256c0 -23 -19 -43 -42 -43h-299l-85 -85v384c0 23 19 42 42 42h342zM13312 256v-43h256v43h-256zM13483 149v43h-171v-43h171zM13568 277v43h-256v-43h256zM13184 -64v512h512v-512h-512z" />
    <glyph glyph-name="uniF106" unicode="&#xf106;" 
d="M0 -23701v38400h14933v-38400h-14933zM9365 405c23 0 43 -19 43 -42v-256c0 -23 -20 -43 -43 -43h-298l-86 -85v384c0 23 20 42 43 42h341zM9067 256v-43h256v43h-256zM9237 149v43h-170v-43h170zM9323 277v43h-256v-43h256zM8939 -64v512h512v-512h-512z" />
    <glyph glyph-name="uniF107" unicode="&#xf107;" horiz-adv-x="-25714" 
d="M0 -60309v102400h39822v-102400h-39822zM14791 -64v512h512v-512h-512zM14979 110l225 224l31 -31l-256 -253l-120 119l32 29z" />
    <glyph glyph-name="uniF108" unicode="&#xf108;" horiz-adv-x="29867" 
d="M0 -45120v76800h29867v-76800h-29867zM13184 -64v512h512v-512h-512zM13376 102l226 227l30 -30l-256 -256l-119 119l29 30z" />
    <glyph glyph-name="uniF109" unicode="&#xf109;" horiz-adv-x="19911" 
d="M0 -29931v51200h19911v-51200h-19911zM10268 -64v512h512v-512h-512zM10460 102l227 227l29 -30l-256 -256l-119 119l30 30z" />
    <glyph glyph-name="uniF10A" unicode="&#xf10a;" 
d="M0 -22336v38400h14933v-38400h-14933zM8939 -64v512h512v-512h-512zM9131 103l226 226l30 -30l-256 -256l-120 119l31 30z" />
    <glyph glyph-name="uniF10B" unicode="&#xf10b;" horiz-adv-x="29867" 
d="M0 -47851v76800h29867v-76800h-29867zM13397 320l128 -128l-128 -128l-30 30l99 98l-99 98zM13184 -64v512h512v-512h-512z" />
    <glyph glyph-name="uniF10C" unicode="&#xf10c;" horiz-adv-x="19911" 
d="M0 -31751v51200h19911v-51200h-19911zM10482 320l128 -128l-128 -128l-30 30l98 98l-98 98zM10268 -64v512h512v-512h-512z" />
    <glyph glyph-name="uniF10D" unicode="&#xf10d;" 
d="M0 -23701v38400h14933v-38400h-14933zM9152 320l128 -128l-128 -128l-30 30l97 98l-97 98zM8939 -64v512h512v-512h-512z" />
    <glyph glyph-name="uniF10E" unicode="&#xf10e;" horiz-adv-x="29867" 
d="M0 -50581v76800h29867v-76800h-29867zM13184 -64v512h512v-512h-512zM13376 102l226 227l30 -30l-256 -256l-119 119l29 30z" />
    <glyph glyph-name="uniF10F" unicode="&#xf10f;" 
d="M0 -25067v38400h14933v-38400h-14933zM8939 -64v512h512v-512h-512zM9131 103l226 226l30 -30l-256 -256l-120 119l31 30z" />
    <glyph glyph-name="uniF110" unicode="&#xf110;" horiz-adv-x="29867" 
d="M0 -47851v76800h29867v-76800h-29867zM13184 -64v512h512v-512h-512zM13568 299l-134 -135l-30 30l134 135zM13658 329l32 -30l-256 -256l-120 119l30 30l90 -90zM13193 162l29 30l120 -119l-30 -30z" />
    <glyph glyph-name="uniF111" unicode="&#xf111;" 
d="M0 -23701v38400h14933v-38400h-14933zM8939 -64v512h512v-512h-512zM9323 299l-136 -136l-30 30l136 136zM9413 329l30 -30l-256 -256l-118 119l30 30l88 -89zM8947 162l31 30l119 -119l-30 -30z" />
    <glyph glyph-name="uniF112" unicode="&#xf112;" horiz-adv-x="-25714" 
d="M0 -60309v102400h39822v-102400h-39822zM14791 -64v512h512v-512h-512zM15161 192v-114h-114v114h114zM15218 391c17 0 28 -11 28 -28v-342c0 -17 -11 -28 -28 -28h-342c-17 0 -28 11 -28 28v342c0 17 11 28 28 28h29v29h57v-29h170v29h57v-29h29zM15189 50v227h-284
v-227h284z" />
    <glyph glyph-name="uniF113" unicode="&#xf113;" horiz-adv-x="29867" 
d="M0 -45120v76800h29867v-76800h-29867zM13547 192v-107h-107v107h107zM13525 427h43v-43h21c23 0 43 -20 43 -43v-298c0 -23 -20 -43 -43 -43h-298c-23 0 -43 20 -43 43v298c0 23 20 43 43 43h21v43h43v-43h170v43zM13589 43v234h-298v-234h298zM13184 -64v512h512v-512
h-512z" />
    <glyph glyph-name="uniF114" unicode="&#xf114;" 
d="M0 -22336v38400h14933v-38400h-14933zM9301 192v-107h-106v107h106zM9280 427h43v-43h21c23 0 43 -20 43 -43v-298c0 -23 -20 -43 -43 -43h-299c-23 0 -42 20 -42 43v298c0 23 19 43 42 43h22v43h42v-43h171v43zM9344 43v234h-299v-234h299zM8939 -64v512h512v-512h-512z
" />
    <glyph glyph-name="uniF115" unicode="&#xf115;" horiz-adv-x="29867" 
d="M0 -36928v76800h29867v-76800h-29867zM13184 -64v512h512v-512h-512zM13333 405h214l-86 -170h86l-150 -256v192h-64v234z" />
    <glyph glyph-name="uniF116" unicode="&#xf116;" 
d="M0 -18240v38400h14933v-38400h-14933zM8939 -64v512h512v-512h-512zM9088 405h213l-85 -170h85l-149 -256v192h-64v234z" />
    <glyph glyph-name="uniF117" unicode="&#xf117;" horiz-adv-x="-25714" 
d="M0 -85796v102400h39822v-102400h-39822zM14791 -64v512h512v-512h-512zM15246 334c17 0 29 -11 29 -28v-285c0 -17 -12 -28 -29 -28h-398c-17 0 -28 11 -28 28v342c0 17 11 28 28 28h171l57 -57h170zM15118 255c-28 0 -48 -21 -51 -52c0 -28 23 -51 51 -51s51 23 51 51
s-23 52 -51 52zM15218 50v34c0 34 -66 51 -100 51s-99 -17 -99 -51v-34h199z" />
    <glyph glyph-name="uniF118" unicode="&#xf118;" horiz-adv-x="29867" 
d="M0 -64235v76800h29867v-76800h-29867zM13611 320c23 0 42 -20 42 -43v-213c0 -23 -19 -43 -42 -43h-342c-23 0 -42 20 -42 43v256c0 23 19 43 42 43h128l43 -43h171zM13504 256c-23 0 -43 -20 -43 -43s20 -42 43 -42s43 19 43 42s-20 43 -43 43zM13589 85v22
c0 28 -57 42 -85 42s-85 -14 -85 -42v-22h170zM13184 -64v512h512v-512h-512z" />
    <glyph glyph-name="uniF119" unicode="&#xf119;" 
d="M0 -31893v38400h14933v-38400h-14933zM9365 320c23 0 43 -20 43 -43v-213c0 -23 -20 -43 -43 -43h-341c-23 0 -43 20 -43 43v256c0 23 20 43 43 43h128l43 -43h170zM9259 256c-23 0 -43 -20 -43 -43s20 -42 43 -42s42 19 42 42s-19 43 -42 43zM9344 85v22
c0 29 -56 42 -85 42s-86 -13 -86 -42v-22h171zM8939 -64v512h512v-512h-512z" />
    <glyph glyph-name="uniF11A" unicode="&#xf11a;" 
d="M0 -31893v38400h14933v-38400h-14933zM9365 320c23 0 43 -20 43 -43v-213c0 -23 -20 -43 -43 -43h-341c-23 0 -43 20 -43 43v256c0 23 20 43 43 43h128l43 -43h170zM9259 256c-23 0 -43 -20 -43 -43s20 -42 43 -42s42 19 42 42s-19 43 -42 43zM9344 85v22
c0 29 -56 42 -85 42s-86 -13 -86 -42v-22h171zM8939 -64v512h512v-512h-512z" />
    <glyph glyph-name="uniF11B" unicode="&#xf11b;" horiz-adv-x="29867" 
d="M0 -34197v76800h29867v-76800h-29867zM13184 -64v512h512v-512h-512zM13632 320c13 0 21 -8 21 -21v-320l-85 85h-235c-13 0 -21 8 -21 21v43h277v192h43zM13547 192c0 -13 -9 -21 -22 -21h-213l-85 -86v299c0 13 8 21 21 21h277c13 0 22 -8 22 -21v-192z" />
    <glyph glyph-name="uniF11C" unicode="&#xf11c;" 
d="M0 -16875v38400h14933v-38400h-14933zM8939 -64v512h512v-512h-512zM9387 320c12 0 21 -9 21 -21v-320l-85 85h-235c-12 0 -21 9 -21 21v43h277v192h43zM9301 192c0 -12 -9 -21 -21 -21h-213l-86 -86v299c0 12 10 21 22 21h277c12 0 21 -9 21 -21v-192z" />
    <glyph glyph-name="uniF11D" unicode="&#xf11d;" horiz-adv-x="-25714" 
d="M0 -67591v102400h39822v-102400h-39822zM14791 -64v512h512v-512h-512zM14962 220c-31 0 -57 26 -57 57s26 57 57 57s57 -26 57 -57s-26 -57 -57 -57zM15132 220c-31 0 -56 26 -56 57s25 57 56 57s57 -26 57 -57s-26 -57 -57 -57zM14962 186c48 0 142 -23 142 -71v-37
h-284v37c0 48 94 71 142 71zM15132 186c48 0 143 -23 143 -71v-37h-128v37c0 28 -14 51 -37 68c9 3 16 3 22 3z" />
    <glyph glyph-name="uniF11E" unicode="&#xf11e;" horiz-adv-x="29867" 
d="M0 -50581v76800h29867v-76800h-29867zM13184 -64v512h512v-512h-512zM13525 213c-36 0 -64 28 -64 64s28 64 64 64s64 -28 64 -64s-28 -64 -64 -64zM13355 213c-36 0 -64 28 -64 64s28 64 64 64s64 -28 64 -64s-28 -64 -64 -64zM13355 171c49 0 149 -26 149 -75v-53h-299
v53c0 49 101 75 150 75zM13525 171c49 0 150 -26 150 -75v-53h-128v53c0 30 -17 56 -43 73c9 2 15 2 21 2z" />
    <glyph glyph-name="uniF11F" unicode="&#xf11f;" 
d="M0 -25067v38400h14933v-38400h-14933zM8939 -64v512h512v-512h-512zM9280 213c-35 0 -64 29 -64 64s29 64 64 64s64 -29 64 -64s-29 -64 -64 -64zM9109 213c-35 0 -64 29 -64 64s29 64 64 64s64 -29 64 -64s-29 -64 -64 -64zM9109 171c50 0 150 -25 150 -75v-53h-299v53
c0 50 99 75 149 75zM9280 171c50 0 149 -25 149 -75v-53h-128v53c0 32 -16 56 -41 74c7 1 14 1 20 1z" />
    <glyph glyph-name="uniF120" unicode="&#xf120;" horiz-adv-x="29867" 
d="M0 -56043v76800h29867v-76800h-29867zM13248 171v42h43v-42h-43zM13248 85v43h43v-43h-43zM13248 256v43h43v-43h-43zM13333 171v42h299v-42h-299zM13333 85v43h299v-43h-299zM13333 299h299v-43h-299v43zM13184 -64v512h512v-512h-512z" />
    <glyph glyph-name="uniF121" unicode="&#xf121;" 
d="M0 -27797v38400h14933v-38400h-14933zM9003 171v42h42v-42h-42zM9003 85v43h42v-43h-42zM9003 256v43h42v-43h-42zM9088 171v42h299v-42h-299zM9088 85v43h299v-43h-299zM9088 299h299v-43h-299v43zM8939 -64v512h512v-512h-512z" />
    <glyph glyph-name="uniF122" unicode="&#xf122;" horiz-adv-x="-25714" 
d="M0 -38464v102400h39822v-102400h-39822zM14791 -64v512h512v-512h-512zM14848 64v43h398v-43h-398zM14848 178v42h398v-42h-398zM14848 334h398v-42h-398v42z" />
    <glyph glyph-name="uniF123" unicode="&#xf123;" horiz-adv-x="29867" 
d="M0 -28736v76800h29867v-76800h-29867zM13184 -64v512h512v-512h-512zM13248 64v43h384v-43h-384zM13248 171v42h384v-42h-384zM13248 320h384v-43h-384v43z" />
    <glyph glyph-name="uniF124" unicode="&#xf124;" horiz-adv-x="19911" 
d="M0 -19008v51200h19911v-51200h-19911zM10268 -64v512h512v-512h-512zM10325 64v43h399v-43h-399zM10325 178v42h399v-42h-399zM10325 334h399v-42h-399v42z" />
    <glyph glyph-name="uniF125" unicode="&#xf125;" 
d="M0 -14144v38400h14933v-38400h-14933zM8939 -64v512h512v-512h-512zM9003 64v43h384v-43h-384zM9003 171v42h384v-42h-384zM9003 320h384v-43h-384v43z" />
    <glyph glyph-name="uniF126" unicode="&#xf126;" horiz-adv-x="-25714" 
d="M0 -34823v102400h39822v-102400h-39822zM14791 -64v512h512v-512h-512zM14905 235c23 0 43 -20 43 -43s-20 -43 -43 -43s-43 20 -43 43s20 43 43 43zM15189 235c23 0 43 -20 43 -43s-20 -43 -43 -43s-42 20 -42 43s19 43 42 43zM15047 235c23 0 43 -20 43 -43
s-20 -43 -43 -43s-43 20 -43 43s20 43 43 43z" />
    <glyph glyph-name="uniF127" unicode="&#xf127;" horiz-adv-x="29867" 
d="M0 -26005v76800h29867v-76800h-29867zM13184 -64v512h512v-512h-512zM13312 235c23 0 43 -20 43 -43s-20 -43 -43 -43s-43 20 -43 43s20 43 43 43zM13568 235c23 0 43 -20 43 -43s-20 -43 -43 -43s-43 20 -43 43s20 43 43 43zM13440 235c23 0 43 -20 43 -43
s-20 -43 -43 -43s-43 20 -43 43s20 43 43 43z" />
    <glyph glyph-name="uniF128" unicode="&#xf128;" horiz-adv-x="19911" 
d="M0 -17188v51200h19911v-51200h-19911zM10268 -64v512h512v-512h-512zM10396 235c24 0 43 -19 43 -43s-19 -43 -43 -43s-42 19 -42 43s18 43 42 43zM10652 235c24 0 43 -19 43 -43s-19 -43 -43 -43s-42 19 -42 43s18 43 42 43zM10524 235c24 0 43 -19 43 -43
s-19 -43 -43 -43s-42 19 -42 43s18 43 42 43z" />
    <glyph glyph-name="uniF129" unicode="&#xf129;" 
d="M0 -12779v38400h14933v-38400h-14933zM8939 -64v512h512v-512h-512zM9067 235c23 0 42 -20 42 -43s-19 -43 -42 -43s-43 20 -43 43s20 43 43 43zM9323 235c23 0 42 -20 42 -43s-19 -43 -42 -43s-43 20 -43 43s20 43 43 43zM9195 235c23 0 42 -20 42 -43s-19 -43 -42 -43
s-43 20 -43 43s20 43 43 43z" />
    <glyph glyph-name="uniF12A" unicode="&#xf12a;" horiz-adv-x="-25714" 
d="M0 -31182v102400h39822v-102400h-39822zM14791 -64v512h512v-512h-512zM15047 292c-23 0 -43 19 -43 42s20 43 43 43s43 -20 43 -43s-20 -42 -43 -42zM15047 235c23 0 43 -20 43 -43s-20 -43 -43 -43s-43 20 -43 43s20 43 43 43zM15047 92c23 0 43 -19 43 -42
s-20 -43 -43 -43s-43 20 -43 43s20 42 43 42z" />
    <glyph glyph-name="uniF12B" unicode="&#xf12b;" horiz-adv-x="29867" 
d="M0 -23275v76800h29867v-76800h-29867zM13184 -64v512h512v-512h-512zM13440 277c-23 0 -43 20 -43 43s20 43 43 43s43 -20 43 -43s-20 -43 -43 -43zM13440 235c23 0 43 -20 43 -43s-20 -43 -43 -43s-43 20 -43 43s20 43 43 43zM13440 107c23 0 43 -20 43 -43
s-20 -43 -43 -43s-43 20 -43 43s20 43 43 43z" />
    <glyph glyph-name="uniF12C" unicode="&#xf12c;" horiz-adv-x="19911" 
d="M0 -15367v51200h19911v-51200h-19911zM10268 -64v512h512v-512h-512zM10524 277c-24 0 -42 19 -42 43s18 43 42 43s43 -19 43 -43s-19 -43 -43 -43zM10524 235c24 0 43 -19 43 -43s-19 -43 -43 -43s-42 19 -42 43s18 43 42 43zM10524 107c24 0 43 -19 43 -43
s-19 -43 -43 -43s-42 19 -42 43s18 43 42 43z" />
    <glyph glyph-name="uniF12D" unicode="&#xf12d;" 
d="M0 -11413v38400h14933v-38400h-14933zM8939 -64v512h512v-512h-512zM9195 277c-23 0 -43 20 -43 43s20 43 43 43s42 -20 42 -43s-19 -43 -42 -43zM9195 235c23 0 42 -20 42 -43s-19 -43 -42 -43s-43 20 -43 43s20 43 43 43zM9195 107c23 0 42 -20 42 -43s-19 -43 -42 -43
s-43 20 -43 43s20 43 43 43z" />
    <glyph glyph-name="uniF12E" unicode="&#xf12e;" horiz-adv-x="29867" 
d="M0 -26005v76800h29867v-76800h-29867zM13440 384c107 0 192 -77 192 -171c0 -60 -47 -106 -107 -106h-38c-17 0 -32 -15 -32 -32c0 -9 4 -16 8 -22c6 -6 9 -12 9 -21c0 -17 -15 -32 -32 -32c-107 0 -192 85 -192 192s85 192 192 192zM13323 192c17 0 32 15 32 32
s-15 32 -32 32s-32 -15 -32 -32s15 -32 32 -32zM13387 277c17 0 32 15 32 32s-15 32 -32 32s-32 -15 -32 -32s15 -32 32 -32zM13493 277c17 0 32 15 32 32s-15 32 -32 32s-32 -15 -32 -32s15 -32 32 -32zM13557 192c17 0 32 15 32 32s-15 32 -32 32s-32 -15 -32 -32
s15 -32 32 -32zM13184 -64v512h512v-512h-512z" />
    <glyph glyph-name="uniF12F" unicode="&#xf12f;" 
d="M0 -12779v38400h14933v-38400h-14933zM9195 384c106 0 192 -77 192 -171c0 -59 -48 -106 -107 -106h-38c-18 0 -32 -14 -32 -32c0 -9 3 -17 8 -22s9 -12 9 -21c0 -18 -14 -32 -32 -32c-106 0 -192 86 -192 192s86 192 192 192zM9077 192c18 0 32 14 32 32s-14 32 -32 32
s-32 -14 -32 -32s14 -32 32 -32zM9141 277c18 0 32 14 32 32s-14 32 -32 32s-32 -14 -32 -32s14 -32 32 -32zM9248 277c18 0 32 14 32 32s-14 32 -32 32s-32 -14 -32 -32s14 -32 32 -32zM9312 192c18 0 32 14 32 32s-14 32 -32 32s-32 -14 -32 -32s14 -32 32 -32zM8939 -64
v512h512v-512h-512z" />
    <glyph glyph-name="uniF130" unicode="&#xf130;" horiz-adv-x="29867" 
d="M0 -36928v76800h29867v-76800h-29867zM13440 405c117 0 213 -96 213 -213s-96 -213 -213 -213s-213 96 -213 213s96 213 213 213zM13440 21c94 0 171 77 171 171s-77 171 -171 171s-171 -77 -171 -171s77 -171 171 -171zM13184 -64v512h512v-512h-512zM13451 299v-111
l96 -58l-17 -28l-111 69v128h32z" />
    <glyph glyph-name="uniF131" unicode="&#xf131;" 
d="M0 -18240v38400h14933v-38400h-14933zM9195 405c117 0 213 -96 213 -213s-95 -213 -213 -213s-214 96 -214 213s96 213 214 213zM9195 21c94 0 170 77 170 171s-76 171 -170 171s-171 -77 -171 -171s77 -171 171 -171zM8939 -64v512h512v-512h-512zM9205 299v-112l96 -57
l-16 -27l-112 68v128h32z" />
    <glyph glyph-name="uniF132" unicode="&#xf132;" horiz-adv-x="29867" 
d="M0 -34197v76800h29867v-76800h-29867zM13515 149l106 -106l-32 -32l-106 106v17l-7 7c-23 -21 -55 -34 -89 -34c-77 0 -139 61 -139 138s62 139 139 139s138 -62 138 -139c0 -34 -13 -66 -34 -89l7 -7h17zM13387 149c53 0 96 43 96 96s-43 96 -96 96s-96 -43 -96 -96
s43 -96 96 -96zM13184 -64v512h512v-512h-512z" />
    <glyph glyph-name="uniF133" unicode="&#xf133;" 
d="M0 -16875v38400h14933v-38400h-14933zM9269 149l108 -106l-32 -32l-107 106v17l-6 6c-25 -20 -57 -33 -91 -33c-77 0 -138 61 -138 138s61 139 137 139c77 0 139 -62 139 -139c0 -35 -13 -65 -33 -90l6 -6h17zM9141 149c53 0 96 43 96 96s-43 96 -96 96s-96 -43 -96 -96
s43 -96 96 -96zM8939 -64v512h512v-512h-512z" />
    <glyph glyph-name="uniF134" unicode="&#xf134;" horiz-adv-x="29867" 
d="M0 -47851v76800h29867v-76800h-29867zM13227 0v149l320 43l-320 43v149l448 -192zM13184 -64v512h512v-512h-512z" />
    <glyph glyph-name="uniF135" unicode="&#xf135;" 
d="M0 -23701v38400h14933v-38400h-14933zM8981 0v149l320 43l-320 43v149l448 -192zM8939 -64v512h512v-512h-512z" />
    <glyph glyph-name="uniF136" unicode="&#xf136;" horiz-adv-x="29867" 
d="M0 -31467v76800h29867v-76800h-29867zM13184 -64v512h512v-512h-512zM13598 171l49 -34c4 -2 4 -9 2 -13l-43 -75c-2 -4 -8 -6 -12 -4l-54 21c-11 -9 -23 -15 -36 -21l-9 -56c0 -4 -6 -8 -10 -8h-86c-6 0 -10 4 -10 8l-9 56c-13 6 -25 12 -36 21l-53 -21
c-6 -2 -11 0 -13 2l-43 75c-2 4 -2 8 2 12l45 37c-2 6 -2 12 -2 21s2 15 2 21l-45 34c-4 4 -6 11 -4 13l43 75c4 4 9 6 15 4l51 -21c13 9 23 17 36 21l9 58c0 4 6 8 10 8h86c4 0 10 -4 8 -10l9 -56c13 -6 25 -12 36 -21l53 21c6 2 11 0 13 -2l43 -75c2 -4 2 -8 -2 -12
l-45 -37c2 -6 2 -12 2 -21s-2 -15 -2 -21zM13440 117c41 0 75 34 75 75s-34 75 -75 75s-75 -34 -75 -75s34 -75 75 -75z" />
    <glyph glyph-name="uniF137" unicode="&#xf137;" 
d="M0 -15509v38400h14933v-38400h-14933zM8939 -64v512h512v-512h-512zM9354 171l47 -36c3 -3 4 -9 2 -13l-43 -74c-2 -4 -8 -6 -13 -4l-53 21c-12 -9 -23 -16 -36 -21l-9 -57c-1 -4 -6 -8 -11 -8h-85c-5 0 -10 3 -11 8l-8 57c-13 5 -25 12 -36 21l-54 -21
c-4 -2 -11 0 -13 4l-42 74c-3 5 -2 10 2 13l45 36c0 7 -1 14 -1 21s1 14 1 21l-46 36c-3 3 -4 9 -2 13l42 74c2 4 8 6 13 4l54 -21c12 9 23 16 36 21l8 57c1 4 6 8 11 8h85c5 0 10 -4 11 -8l7 -57c13 -5 26 -12 37 -21l53 21c4 2 11 0 13 -4l43 -74c3 -5 1 -10 -3 -13
l-44 -36c0 -7 1 -14 1 -21s0 -15 -1 -21zM9195 117c42 0 74 33 74 75s-32 75 -74 75s-75 -33 -75 -75s33 -75 75 -75z" />
    <glyph glyph-name="uniF138" unicode="&#xf138;" horiz-adv-x="29867" 
d="M0 -53312v76800h29867v-76800h-29867zM13269 149v86h86v-86h-86zM13269 43v85h86v-85h-86zM13269 256v85h86v-85h-86zM13376 149v86h256v-86h-256zM13376 43v85h256v-85h-256zM13376 341h256v-85h-256v85zM13184 -64v512h512v-512h-512z" />
    <glyph glyph-name="uniF139" unicode="&#xf139;" 
d="M0 -26432v38400h14933v-38400h-14933zM9024 149v86h85v-86h-85zM9024 43v85h85v-85h-85zM9024 256v85h85v-85h-85zM9131 149v86h256v-86h-256zM9131 43v85h256v-85h-256zM9131 341h256v-85h-256v85zM8939 -64v512h512v-512h-512z" />
  </font>
</defs>
</svg>
