<?xml version="1.0" encoding="UTF-8" standalone="no"?>
<!-- Generator: Adobe Illustrator 16.0.0, SVG Export Plug-In . SVG Version: 6.00 Build 0)  -->

<svg
   xmlns:dc="http://purl.org/dc/elements/1.1/"
   xmlns:cc="http://creativecommons.org/ns#"
   xmlns:rdf="http://www.w3.org/1999/02/22-rdf-syntax-ns#"
   xmlns:svg="http://www.w3.org/2000/svg"
   xmlns="http://www.w3.org/2000/svg"
   xmlns:sodipodi="http://sodipodi.sourceforge.net/DTD/sodipodi-0.dtd"
   xmlns:inkscape="http://www.inkscape.org/namespaces/inkscape"
   version="1.1"
   id="Layer_1"
   x="0px"
   y="0px"
   width="30px"
   height="30px"
   viewBox="-0.5 0.5 30 30"
   enable-background="new -0.5 0.5 30 30"
   xml:space="preserve"
   inkscape:version="0.48.4 r9939"
   sodipodi:docname="presentation-logo-white (copy).svg"><metadata
     id="metadata10"><rdf:RDF><cc:Work
         rdf:about=""><dc:format>image/svg+xml</dc:format><dc:type
           rdf:resource="http://purl.org/dc/dcmitype/StillImage" /></cc:Work></rdf:RDF></metadata><defs
     id="defs8" /><sodipodi:namedview
     pagecolor="#ffffff"
     bordercolor="#666666"
     borderopacity="1"
     objecttolerance="10"
     gridtolerance="10"
     guidetolerance="10"
     inkscape:pageopacity="0"
     inkscape:pageshadow="2"
     inkscape:window-width="1855"
     inkscape:window-height="1176"
     id="namedview6"
     showgrid="false"
     inkscape:zoom="3.9333333"
     inkscape:cx="-10.254238"
     inkscape:cy="30"
     inkscape:window-x="65"
     inkscape:window-y="24"
     inkscape:window-maximized="1"
     inkscape:current-layer="Layer_1" /><rect
     x="-0.5"
     y="0.5"
     width="30"
     height="30"
     id="rect3"
     fill="none" /><path
     id="Punch"
     d="m 23.5,9.5 h -4 v -2 c 0,-1.104 -0.896,-2 -2,-2 h -12 c -1.104,0 -2,0.896 -2,2 v 11 c 0,1.105 0.896,2 2,2 h 5 v 3 c 0,1.105 0.896,2 2,2 h 11 c 1.104,0 2,-0.895 2,-2 v -12 c 0,-1.105 -0.896,-2 -2,-2 z m -18,8 v -9 h 12 v 9 h -12 z m 18,5 h -11 v -2 h 5 c 1.104,0 2,-0.895 2,-2 v -6 h 4 v 10 z"
     inkscape:connector-curvature="0"
     style="fill:#ffffff" /></svg>